<svg width="51" height="51" viewBox="0 0 51 51" fill="none" xmlns="http://www.w3.org/2000/svg">
<path d="M8.75721 2.87473L0.762207 0.202637V34.0987L8.75721 38.0974V30.8003V2.87473Z" fill="#333695"/>
<path d="M25.0012 7.35276L17.0062 4.68066V38.5767L25.0012 42.5755V35.2784V7.35276Z" fill="#333695"/>
<rect width="15.9525" height="6.13532" transform="matrix(0.926918 0.375264 -0.672185 0.740383 7.52045 15.3528)" fill="#333695"/>
<path d="M33.9092 10.5019L25.9142 7.82983V41.7259L33.9092 45.7246V38.4275V10.5019Z" fill="#00B5AF"/>
<path d="M50.1531 14.98L42.1581 12.3079V46.2039L50.1531 50.2027V42.9056V14.98Z" fill="#00B5AF"/>
<rect width="15.9525" height="6.13532" transform="matrix(0.926918 0.375264 -0.672185 0.740383 32.6724 22.98)" fill="#00B5AF"/>
<path d="M4.6922 17.4525L17.6214 22.3778L21.9842 18.5022L21.9842 30.2244" stroke="#00B5AF"/>
<path d="M21.9842 30.2243L26.1762 25.8503" stroke="#00B5AF"/>
<path d="M26.1762 25.8505L31.1542 20.4268L31.1542 27.0752L36.4703 26.0116L36.2633 28.5911L46.3502 32.8488" stroke="#333695"/>
</svg>
